<svg width="42" height="41" xmlns="http://www.w3.org/2000/svg" xmlns:xlink="http://www.w3.org/1999/xlink" overflow="hidden"><defs><clipPath id="clip0"><rect x="584" y="353" width="42" height="41"/></clipPath></defs><g clip-path="url(#clip0)" transform="translate(-584 -353)"><path d="M21.115 37.5833 21.115 33.8805C21.1301 33.2935 20.8514 32.7376 20.3719 32.3985 19.3047 31.5701 18.0682 30.9868 16.7502 30.6902 15.7612 30.3933 14.7373 30.2281 13.7051 30.1991 12.6774 30.1967 11.6557 30.3552 10.6771 30.6689 9.37781 31.0183 8.15135 31.5968 7.05542 32.3772 6.5925 32.7297 6.31951 33.2773 6.31656 33.8592L6.31656 37.5833Z" fill="#041B91" transform="matrix(1.02439 0 0 1 584 353)"/><path d="M17.4079 25.4841C17.4079 27.5291 15.7501 29.1869 13.7051 29.1869 11.6601 29.1869 10.0023 27.5291 10.0023 25.4841 10.0023 23.4391 11.6601 21.7812 13.7051 21.7812 15.7501 21.7812 17.4079 23.4391 17.4079 25.4841Z" fill="#041B91" transform="matrix(1.02439 0 0 1 584 353)"/><path d="M33.8549 3.84375 16.3018 3.84375C15.7303 3.84845 15.2701 4.31431 15.2725 4.88583L15.2725 18.6038C15.2654 19.1722 15.7204 19.6387 16.2888 19.6458 16.2903 19.6458 16.2918 19.6458 16.2932 19.6458L19.5391 19.6458 19.5391 23.9551 23.4554 19.6458 33.8335 19.6458C34.4043 19.6435 34.8652 19.1789 34.8629 18.6081 34.8629 18.6066 34.8628 18.6052 34.8628 18.6038L34.8842 4.89865C34.896 4.32798 34.4429 3.85576 33.8722 3.84396 33.8664 3.84384 33.8607 3.84377 33.8549 3.84375ZM27.8757 7.85406 28.5377 7.19208C28.6537 7.09915 28.823 7.11786 28.9159 7.23381 28.994 7.33127 28.9948 7.4696 28.9178 7.56792L28.2558 8.2299C28.2059 8.27948 28.1383 8.30711 28.0679 8.30677 27.9964 8.30643 27.9277 8.27897 27.8757 8.2299 27.788 8.12453 27.7935 7.96997 27.8885 7.87115ZM24.8135 5.80406C24.7948 5.65663 24.8992 5.52197 25.0466 5.50331 25.1941 5.4846 25.3287 5.58898 25.3474 5.73641 25.3503 5.75888 25.3503 5.7816 25.3474 5.80406L25.3474 6.7351C25.3661 6.88253 25.2617 7.01719 25.1143 7.03586 24.9669 7.05456 24.8322 6.95018 24.8135 6.80275 24.8107 6.78029 24.8107 6.75757 24.8135 6.7351ZM21.2517 7.14083C21.3513 7.03705 21.5162 7.03372 21.62 7.13336 21.6225 7.13579 21.6251 7.13827 21.6275 7.14083L22.2895 7.80281C22.3915 7.90732 22.3915 8.07414 22.2895 8.17865 22.2396 8.22823 22.1719 8.25586 22.1016 8.25552 22.0301 8.25518 21.9614 8.22772 21.9094 8.17865L21.2517 7.51667C21.1597 7.41276 21.1654 7.25499 21.2645 7.15792ZM20.9271 11.1042 20.0089 11.1042C19.8614 11.0855 19.7571 10.9508 19.7758 10.8034 19.7912 10.6817 19.8871 10.5857 20.0089 10.5703L20.9271 10.5703C21.0745 10.5516 21.2092 10.656 21.2278 10.8034 21.2465 10.9508 21.1422 11.0855 20.9947 11.1042 20.9723 11.107 20.9495 11.107 20.9271 11.1042ZM22.2852 13.8375 21.6232 14.4995C21.5062 14.5911 21.3371 14.5705 21.2455 14.4535 21.1686 14.3552 21.1693 14.2168 21.2474 14.1194L21.9051 13.4617C22.0211 13.3687 22.1904 13.3874 22.2833 13.5034 22.3614 13.6009 22.3622 13.7392 22.2852 13.8375ZM25.0698 16.8698C24.628 16.8718 24.2576 16.5366 24.2156 16.0968L25.8855 16.0968C25.8453 16.5222 25.4968 16.8525 25.0698 16.8698ZM26.1119 15.5629 24.0234 15.5629C23.8111 15.5629 23.6391 15.3908 23.6391 15.1785 23.6391 14.9662 23.8111 14.7942 24.0234 14.7942L26.1119 14.7942C26.3242 14.7942 26.4963 14.9662 26.4963 15.1785 26.4963 15.3908 26.3242 15.5629 26.1119 15.5629ZM26.6201 14.2347C26.6134 14.25 26.5984 14.2601 26.5817 14.2603L23.5536 14.2603C23.5413 14.2653 23.5276 14.2653 23.5152 14.2603 23.2994 13.789 23.0269 13.3458 22.7038 12.9406 22.4727 12.6807 22.2904 12.3812 22.1656 12.0566 22.0306 11.7131 21.9555 11.3491 21.9435 10.9803L21.9435 10.8479C22.0073 9.1225 23.4578 7.77552 25.1832 7.83933 26.8191 7.89985 28.1313 9.21202 28.1918 10.8479L28.1918 10.959C28.1796 11.3287 28.106 11.6939 27.974 12.0395 27.8473 12.3632 27.6653 12.6624 27.4358 12.9235 27.1127 13.3265 26.8389 13.7667 26.6201 14.2347ZM28.9306 14.4397C28.8807 14.4893 28.8131 14.5169 28.7427 14.5166 28.6712 14.5162 28.6025 14.4888 28.5505 14.4397L27.8885 13.7777C27.7969 13.6607 27.8175 13.4916 27.9345 13.4 28.0329 13.323 28.1712 13.3238 28.2686 13.4019L28.9306 14.0596C29.0331 14.1655 29.0331 14.3337 28.9306 14.4397ZM30.1265 11.1042 29.1954 11.1042C29.048 11.1228 28.9133 11.0185 28.8947 10.8711 28.876 10.7236 28.9803 10.589 29.1278 10.5703 29.1502 10.5675 29.173 10.5675 29.1954 10.5703L30.1265 10.5703C30.2739 10.5516 30.4085 10.656 30.4272 10.8034 30.4459 10.9508 30.3415 11.0855 30.1941 11.1042 30.1716 11.107 30.1489 11.107 30.1265 11.1042Z" fill="#041B91" transform="matrix(1.02439 0 0 1 584 353)"/></g></svg>