<svg width="41" height="42" xmlns="http://www.w3.org/2000/svg" xmlns:xlink="http://www.w3.org/1999/xlink" overflow="hidden"><defs><clipPath id="clip0"><rect x="250" y="265" width="41" height="42"/></clipPath></defs><g clip-path="url(#clip0)" transform="translate(-250 -265)"><path d="M23.543 24.9113 23.4533 24.9113C22.5923 27.4824 20.9065 28.7676 18.3958 28.7671 16.8917 28.8134 15.4544 28.145 14.5208 26.9648 13.5405 25.7632 13.0504 24.1461 13.0504 22.1135 13.0504 19.4232 13.723 17.1881 15.0684 15.4083 16.2872 13.6901 18.2794 12.6888 20.3855 12.7361 21.1868 12.7253 21.971 12.9669 22.6273 13.4266 23.2306 13.8158 23.6805 14.402 23.9004 15.0854L23.9543 15.0854C23.9901 14.7509 24.0798 14.0634 24.2233 13.0231L27.2005 13.0231C26.639 19.3348 26.3583 22.5503 26.3583 22.6696 26.3583 25.0368 26.9742 26.2205 28.2059 26.2208 29.3291 26.2208 30.2615 25.5601 31.0033 24.2387 31.745 22.9173 32.1151 21.2047 32.1137 19.1009 32.1137 15.9923 31.1123 13.4545 29.1096 11.4877 27.1069 9.52084 24.3308 8.5374 20.7814 8.5374 17.5772 8.45147 14.4917 9.75241 12.3162 12.1065 10.0803 14.4848 8.96234 17.4619 8.96234 21.0377 8.96234 24.5651 10.0383 27.4106 12.1902 29.5742 14.3422 31.7378 17.2417 32.8198 20.8886 32.8201 23.4248 32.8881 25.9438 32.385 28.2593 31.3479L28.2593 34.1099C26.1668 34.9942 23.5545 35.4367 20.4223 35.4372 16.0222 35.4372 12.4774 34.122 9.7879 31.4914 7.09842 28.8609 5.75311 25.4182 5.75196 21.1633 5.75196 16.7874 7.1747 13.1586 10.0202 10.2769 12.8658 7.39525 16.5005 5.95452 20.9245 5.95482 25.0732 5.95482 28.5075 7.16249 31.2275 9.57777 33.9474 11.9931 35.3074 15.1435 35.3074 19.0291 35.3074 21.8749 34.5691 24.2096 33.0926 26.0333 31.616 27.8569 29.8137 28.768 27.6857 28.7666 24.9353 28.7669 23.5544 27.4818 23.543 24.9113ZM20.6913 15.2806C19.3759 15.2806 18.3149 15.9262 17.5083 17.2174 16.6561 18.6791 16.2363 20.3526 16.2975 22.0435 16.238 23.1236 16.5239 24.1946 17.1137 25.1014 17.6025 25.8204 18.4226 26.2425 19.2918 26.2225 20.6066 26.2225 21.6468 25.5439 22.4125 24.1866 23.1781 22.8293 23.5609 21.0324 23.5609 18.7959 23.5609 16.4527 22.6044 15.2809 20.6913 15.2806Z" fill="#041B91" transform="matrix(1 0 0 1.02439 250 265)"/></g></svg>