<svg width="42" height="41" xmlns="http://www.w3.org/2000/svg" xmlns:xlink="http://www.w3.org/1999/xlink" overflow="hidden"><defs><clipPath id="clip0"><rect x="315" y="88" width="42" height="41"/></clipPath></defs><g clip-path="url(#clip0)" transform="translate(-315 -88)"><path d="M21.3542 12.8125 19.6458 12.8125C18.7062 12.8125 17.9375 12.0438 17.9375 11.1042L17.9375 7.6875C17.9375 6.74792 18.7062 5.97917 19.6458 5.97917L21.3542 5.97917C22.2938 5.97917 23.0625 6.74792 23.0625 7.6875L23.0625 11.1042C23.0625 12.0438 22.2938 12.8125 21.3542 12.8125Z" fill="#041B91" transform="matrix(1.02439 0 0 1 315 88)"/><path d="M34.1667 21.3542 23.9167 21.3542 23.9167 19.6458 34.1667 19.6458 34.1667 21.3542ZM34.1667 26.4792 23.9167 26.4792 23.9167 24.7708 34.1667 24.7708 34.1667 26.4792ZM34.1667 31.6042 23.9167 31.6042 23.9167 29.8958 34.1667 29.8958 34.1667 31.6042ZM20.5 31.6042 6.83333 31.6042 6.83333 28.1875C6.83333 27.675 7.08958 27.1625 7.51667 26.8208 8.45625 26.1375 9.65208 25.5396 10.8479 25.1979 11.7875 24.9417 12.7271 24.7708 13.6667 24.7708 14.6917 24.7708 15.6312 24.9417 16.4854 25.1979 17.6813 25.5396 18.8771 26.0521 19.8167 26.8208 20.2438 27.1625 20.5 27.675 20.5 28.1875L20.5 31.6042ZM13.6667 17.0833C15.5458 17.0833 17.0833 18.6208 17.0833 20.5 17.0833 22.3792 15.5458 23.9167 13.6667 23.9167 11.7875 23.9167 10.25 22.3792 10.25 20.5 10.25 18.6208 11.7875 17.0833 13.6667 17.0833ZM35.875 11.1042 24.7708 11.1042C24.7708 12.9833 23.2333 14.5208 21.3542 14.5208L19.6458 14.5208C17.7667 14.5208 16.2292 12.9833 16.2292 11.1042L5.125 11.1042C4.18542 11.1042 3.41667 11.8729 3.41667 12.8125L3.41667 33.3125C3.41667 34.2521 4.18542 35.0208 5.125 35.0208L35.875 35.0208C36.8146 35.0208 37.5833 34.2521 37.5833 33.3125L37.5833 12.8125C37.5833 11.8729 36.8146 11.1042 35.875 11.1042Z" fill="#041B91" transform="matrix(1.02439 0 0 1 315 88)"/></g></svg>