<svg width="42" height="42" xmlns="http://www.w3.org/2000/svg" xmlns:xlink="http://www.w3.org/1999/xlink" overflow="hidden"><defs><clipPath id="clip0"><rect x="115" y="128" width="42" height="42"/></clipPath></defs><g clip-path="url(#clip0)" transform="translate(-115 -128)"><path d="M141.25 139.812C141.25 143.678 138.116 146.812 134.25 146.812 130.384 146.812 127.25 143.678 127.25 139.812 127.25 135.947 130.384 132.812 134.25 132.812 138.116 132.812 141.25 135.947 141.25 139.812Z" fill="#041B91"/><path d="M136.875 159.062C136.882 155 139.823 151.536 143.831 150.871 142.606 150.284 141.333 149.805 140.025 149.438 138.153 148.865 136.207 148.57 134.25 148.562 132.295 148.596 130.353 148.89 128.475 149.438 126.028 150.152 123.72 151.276 121.65 152.762 120.787 153.438 120.273 154.466 120.25 155.562L120.25 162.562 137.658 162.562C137.144 161.467 136.876 160.272 136.875 159.062Z" fill="#041B91"/><path d="M145.188 152.5C141.563 152.5 138.625 155.438 138.625 159.062 138.625 162.687 141.563 165.625 145.188 165.625 148.812 165.625 151.75 162.687 151.75 159.062 151.75 155.438 148.812 152.5 145.188 152.5ZM148.25 159.5 145.844 159.5 145.844 161.906 144.531 161.906 144.531 159.5 142.125 159.5 142.125 158.188 144.531 158.188 144.531 155.781 145.844 155.781 145.844 158.188 148.25 158.188Z" fill="#041B91"/></g></svg>