<svg width="41" height="41" xmlns="http://www.w3.org/2000/svg" xmlns:xlink="http://www.w3.org/1999/xlink" overflow="hidden"><defs><clipPath id="clip0"><rect x="520" y="435" width="41" height="41"/></clipPath></defs><g clip-path="url(#clip0)" transform="translate(-520 -435)"><path d="M529.823 443.542 534.521 443.542 534.521 446.104 546.479 446.104 546.479 443.542 551.177 443.542 551.177 470.021 529.823 470.021 529.823 443.542ZM540.543 440.125C541.226 440.125 541.781 440.723 541.781 441.406 541.781 442.132 541.226 442.688 540.5 442.688 539.774 442.688 539.219 442.132 539.219 441.406 539.219 440.68 539.774 440.125 540.543 440.125ZM527.26 442.688 527.26 470.875C527.26 471.815 528.029 472.583 528.969 472.583L552.031 472.583C552.971 472.583 553.74 471.815 553.74 470.875L553.74 442.688C553.74 441.748 552.971 440.979 552.031 440.979L544.771 440.979 544.771 440.125C544.771 439.185 544.002 438.417 543.062 438.417L537.938 438.417C536.998 438.417 536.229 439.185 536.229 440.125L536.229 440.979 528.969 440.979C528.029 440.979 527.26 441.748 527.26 442.688Z" fill="#041B91"/><path d="M532.385 449.521 548.615 449.521 548.615 451.229 532.385 451.229Z" fill="#041B91"/><path d="M532.385 461.906 538.792 461.906 538.792 463.615 532.385 463.615Z" fill="#041B91"/><path d="M540.5 452.938 548.615 452.938 548.615 454.646 540.5 454.646Z" fill="#041B91"/><path d="M542.123 464.768 540.5 467.715 541.909 467.501 542.635 468.654 544.344 465.579C544.13 465.536 543.917 465.451 543.703 465.323 543.618 465.323 543.532 465.366 543.404 465.366 543.191 465.366 542.934 465.323 542.721 465.237 542.507 465.109 542.294 464.981 542.123 464.768Z" fill="#041B91"/><path d="M544.899 465.579 546.522 468.74 547.205 467.458 548.572 467.757 547.034 464.682 546.992 464.682C546.821 464.939 546.522 465.152 546.223 465.28 546.009 465.366 545.839 465.408 545.625 465.408 545.54 465.408 545.454 465.408 545.369 465.408 545.241 465.494 545.07 465.536 544.899 465.579Z" fill="#041B91"/><path d="M542.294 461.009 542.294 461.009C542.294 459.685 543.361 458.66 544.643 458.66 545.967 458.66 546.992 459.728 546.992 461.009 546.992 462.291 545.924 463.358 544.643 463.358 543.319 463.358 542.294 462.291 542.294 461.009ZM540.628 461.009C540.628 461.266 540.714 461.522 540.884 461.693 540.799 461.949 540.799 462.205 540.884 462.461 540.97 462.718 541.183 462.931 541.482 463.059 541.482 463.358 541.568 463.615 541.781 463.828 541.952 463.999 542.208 464.127 542.465 464.127 542.55 464.383 542.764 464.554 542.977 464.64 543.233 464.768 543.532 464.768 543.831 464.64 544.045 464.853 544.301 464.981 544.6 464.981 544.856 464.981 545.112 464.896 545.283 464.725 545.54 464.81 545.796 464.81 546.052 464.725 546.308 464.64 546.522 464.426 546.65 464.127 546.949 464.127 547.205 464.042 547.419 463.828 547.59 463.657 547.718 463.401 547.718 463.145 547.974 463.059 548.145 462.846 548.23 462.632 548.358 462.376 548.358 462.077 548.23 461.778 548.444 461.565 548.572 461.308 548.572 461.009 548.572 460.753 548.486 460.497 548.316 460.326 548.401 460.07 548.401 459.814 548.316 459.557 548.23 459.301 548.017 459.087 547.718 458.959 547.718 458.66 547.632 458.404 547.419 458.191 547.248 458.02 546.992 457.892 546.735 457.892 546.65 457.635 546.436 457.465 546.223 457.379 545.967 457.251 545.668 457.251 545.369 457.379 545.155 457.166 544.899 457.038 544.6 457.038 544.344 457.038 544.088 457.123 543.917 457.294 543.66 457.208 543.404 457.208 543.148 457.294 542.892 457.379 542.678 457.593 542.55 457.892 542.251 457.892 541.995 457.977 541.781 458.191 541.61 458.361 541.482 458.618 541.482 458.874 541.226 458.959 541.055 459.173 540.97 459.386 540.842 459.643 540.842 459.942 540.97 460.241 540.714 460.411 540.628 460.71 540.628 461.009L540.628 461.009Z" fill="#041B91"/></g></svg>