<svg width="41" height="41" xmlns="http://www.w3.org/2000/svg" xmlns:xlink="http://www.w3.org/1999/xlink" overflow="hidden"><defs><clipPath id="clip0"><rect x="203" y="409" width="41" height="41"/></clipPath></defs><g clip-path="url(#clip0)" transform="translate(-203 -409)"><path d="M218.774 435.218 216.969 432.33C216.916 432.245 216.804 432.22 216.72 432.273 216.697 432.288 216.678 432.307 216.663 432.33L216.134 433.179 217.269 435.016C217.366 435.161 217.387 435.343 217.326 435.507L218.607 435.507C218.712 435.508 218.799 435.425 218.801 435.32 218.801 435.283 218.792 435.248 218.773 435.217Z" fill="#041B91"/><path d="M216.809 435.235 213.93 430.552C213.893 430.504 213.836 430.477 213.776 430.478 213.768 430.479 213.759 430.48 213.751 430.481 213.743 430.48 213.735 430.479 213.727 430.478 213.667 430.477 213.61 430.504 213.573 430.552L210.694 435.235C210.653 435.292 210.648 435.367 210.68 435.429 210.712 435.486 210.776 435.517 210.84 435.507L216.663 435.507C216.727 435.517 216.791 435.486 216.823 435.429 216.855 435.367 216.85 435.292 216.809 435.235ZM214.232 432.746 213.774 433.153 213.317 432.746 212.564 433.204 213.751 431.272 214.911 433.158Z" fill="#041B91"/><path d="M212.428 430.771C212.428 430.99 212.25 431.168 212.031 431.168 211.812 431.168 211.634 430.99 211.634 430.771 211.634 430.552 211.812 430.374 212.031 430.374 212.25 430.374 212.428 430.552 212.428 430.771Z" fill="#041B91"/><path d="M219.229 429.927 219.229 435.906 210.26 435.906 210.26 429.927 219.229 429.927M220.51 428.646 208.979 428.646 208.979 437.188 220.51 437.188 220.51 428.646Z" fill="#041B91"/><path d="M236.312 435.689 236.312 440.177 207.271 440.177 207.271 423.094 236.312 423.094 236.312 427.59 238.875 425.022 238.875 416.26 204.708 416.26 204.708 442.74 238.875 442.74 238.875 433.126ZM234.177 418.823C234.649 418.823 235.031 419.205 235.031 419.677 235.031 420.149 234.649 420.531 234.177 420.531 233.705 420.531 233.323 420.149 233.323 419.677 233.323 419.205 233.705 418.823 234.177 418.823ZM231.188 418.823C231.659 418.823 232.042 419.205 232.042 419.677 232.042 420.149 231.659 420.531 231.188 420.531 230.716 420.531 230.333 420.149 230.333 419.677 230.333 419.205 230.716 418.823 231.188 418.823ZM228.198 418.823C228.67 418.823 229.052 419.205 229.052 419.677 229.052 420.149 228.67 420.531 228.198 420.531 227.726 420.531 227.344 420.149 227.344 419.677 227.344 419.205 227.726 418.823 228.198 418.823Z" fill="#041B91"/><path d="M208.979 425.229 234.604 425.229 234.604 426.938 208.979 426.938Z" fill="#041B91"/><path d="M222.219 433.771 230.26 433.771 230.317 433.6 231.85 432.062 222.219 432.062 222.219 433.771Z" fill="#041B91"/><path d="M222.219 428.646 222.219 430.354 233.555 430.354 234.604 429.303 234.604 428.646 222.219 428.646Z" fill="#041B91"/><path d="M229.694 435.479 222.219 435.479 222.219 437.188 229.127 437.188 229.694 435.479Z" fill="#041B91"/><path d="M233.31 434.658C233.653 434.992 233.66 435.54 233.327 435.883 233.321 435.889 233.315 435.895 233.31 435.9L231.823 436.39 231.56 436.127 232.05 434.64C232.405 434.304 232.964 434.312 233.31 434.658ZM238.984 426.727 231.438 434.291 230.335 437.615 233.677 436.512 241.224 428.966Z" fill="#041B91"/><path d="M242.938 426.254 241.696 425.012C241.427 424.736 240.985 424.731 240.71 425.001 240.706 425.004 240.702 425.008 240.699 425.012L239.473 426.237 241.694 428.457 242.918 427.233C243.193 426.992 243.222 426.574 242.981 426.299 242.967 426.283 242.953 426.268 242.938 426.254Z" fill="#041B91"/></g></svg>