<svg width="41" height="41" xmlns="http://www.w3.org/2000/svg" xmlns:xlink="http://www.w3.org/1999/xlink" overflow="hidden"><defs><clipPath id="clip0"><rect x="77" y="240" width="41" height="41"/></clipPath></defs><g clip-path="url(#clip0)" transform="translate(-77 -240)"><path d="M92.8021 257.117C93.032 256.879 93.1606 256.561 93.1608 256.229 93.1622 255.893 93.0284 255.569 92.7893 255.332L88.7405 251.279C88.5015 251.04 88.1776 250.905 87.8394 250.903 87.5027 250.906 87.1805 251.041 86.9425 251.279L86.4941 251.732 92.3366 257.562Z" fill="#041B91"/><path d="M98.6745 267.487C98.4296 267.736 98.0295 267.739 97.7806 267.494 97.7782 267.492 97.7757 267.49 97.7733 267.487L90.5129 260.227C90.2631 259.977 90.2631 259.571 90.5129 259.321L91.4183 258.441 85.5972 252.625C85.2214 253 84.8541 253.368 84.6149 253.594 84.0292 254.141 83.6786 254.895 83.6369 255.695 83.584 257.001 83.8173 258.303 84.3202 259.509 84.8021 260.59 85.3931 261.619 86.0841 262.58 88.487 266.185 91.5261 269.323 95.0528 271.839 95.6416 272.275 96.2611 272.667 96.9064 273.014 98.3647 273.78 99.9624 274.245 101.604 274.38 102.727 274.462 103.827 274.03 104.594 273.206L105.397 272.403 99.5543 266.582Z" fill="#041B91"/><path d="M106.738 269.259 102.689 265.198C102.19 264.704 101.386 264.704 100.887 265.198L100.46 265.659 106.285 271.51 106.738 271.083C107.232 270.584 107.232 269.78 106.738 269.281Z" fill="#041B91"/><path d="M103.539 261.354 101.831 261.354C101.645 258.904 99.8924 256.857 97.5 256.297L97.5 254.555C100.842 255.153 103.339 257.964 103.539 261.354Z" fill="#041B91"/><path d="M107.622 260.5C107.622 260.786 107.622 261.072 107.583 261.354L105.875 261.354C105.904 261.07 105.919 260.785 105.918 260.5 105.911 255.855 102.145 252.091 97.5 252.086L97.5 250.378C103.088 250.383 107.617 254.912 107.622 260.5Z" fill="#041B91"/><path d="M112.021 260.5C112.021 260.786 112.021 261.072 111.991 261.354L110.283 261.354C110.283 261.072 110.317 260.786 110.317 260.5 110.317 253.66 104.772 248.115 97.9314 248.115 97.9299 248.115 97.9285 248.115 97.9271 248.115 97.7819 248.115 97.6409 248.115 97.5 248.115L97.5 246.406 97.9271 246.406C105.711 246.406 112.021 252.716 112.021 260.5Z" fill="#041B91"/></g></svg>