<svg width="42" height="41" xmlns="http://www.w3.org/2000/svg" xmlns:xlink="http://www.w3.org/1999/xlink" overflow="hidden"><defs><clipPath id="clip0"><rect x="315" y="457" width="42" height="41"/></clipPath></defs><g clip-path="url(#clip0)" transform="translate(-315 -457)"><path d="M37.4979 3.5875C36.9 2.98958 33.0563 3.67292 29.8531 4.52708 31.0063 5.21042 32.2021 6.15 33.3552 7.30313 34.551 8.49896 35.4906 9.69479 36.174 10.8906 37.0281 7.60208 38.1385 4.18542 37.4979 3.5875Z" fill="#041B91" transform="matrix(1.02439 0 0 1 315 457)"/><path d="M13.7094 15.7594 12.2573 15.2042C11.6594 14.9906 11.0188 15.1188 10.549 15.5458L3.75833 22.3365C2.64792 23.4469 3.67292 25.3688 5.21042 25.0271L10.8906 23.7458C11.3604 21.6104 12.1292 18.749 13.7094 15.7594Z" fill="#041B91" transform="matrix(1.02439 0 0 1 315 457)"/><path d="M25.0271 26.9062C22.1656 28.401 19.4323 29.2125 17.2115 29.6396L15.8875 35.7042C15.5458 37.2417 17.425 38.3094 18.5781 37.1562L25.3688 30.3656C25.7958 29.9385 25.9667 29.2552 25.7104 28.6573L25.0271 26.9062Z" fill="#041B91" transform="matrix(1.02439 0 0 1 315 457)"/><path d="M27.5469 5.29583C25.0271 6.32083 22.1656 8.07187 19.3896 10.8479 14.3073 15.9302 12.8125 22.0802 12.3854 25.5823L15.0333 28.2302C18.5354 27.8031 24.7281 26.351 29.8104 21.2687 32.5865 18.4927 34.3375 15.674 35.3625 13.1542 34.8073 11.7448 33.6969 10.0792 32.1167 8.45625 30.5792 6.96146 28.9563 5.85104 27.5469 5.29583ZM29.725 14.5208C28.7427 15.5031 27.1198 15.5031 26.0948 14.5208 25.1125 13.5385 25.1125 11.9156 26.0948 10.8906 27.0771 9.90833 28.7 9.90833 29.725 10.8906 30.7073 11.9156 30.7073 13.5385 29.725 14.5208Z" fill="#041B91" transform="matrix(1.02439 0 0 1 315 457)"/><path d="M12.3427 28.2729C11.6594 27.5896 11.7448 26.4365 10.3354 27.8458 8.92604 29.2552 6.83333 32.4583 7.47396 33.1417 8.15729 33.825 11.3604 31.6896 12.7698 30.2802 14.1792 28.8281 13.026 28.9135 12.3427 28.2729Z" fill="#041B91" transform="matrix(1.02439 0 0 1 315 457)"/></g></svg>