<svg width="41" height="41" xmlns="http://www.w3.org/2000/svg" xmlns:xlink="http://www.w3.org/1999/xlink" overflow="hidden"><defs><clipPath id="clip0"><rect x="250" y="169" width="41" height="41"/></clipPath></defs><g clip-path="url(#clip0)" transform="translate(-250 -169)"><path d="M254.271 200.177 286.729 200.177 286.729 201.885 254.271 201.885Z" fill="#041B91"/><path d="M252.562 203.594 288.438 203.594 288.438 205.302 252.562 205.302Z" fill="#041B91"/><path d="M261.104 185.229 261.104 184.375 255.979 184.375 255.979 185.229 257.26 186.083 256.839 197.041 255.979 197.615 255.979 198.469 261.104 198.469 261.104 197.615 260.244 197.041 259.823 186.083 261.104 185.229Z" fill="#041B91"/><path d="M267.083 185.229 267.083 184.375 261.958 184.375 261.958 185.229 263.24 186.083 262.818 197.041 261.958 197.615 261.958 198.469 267.083 198.469 267.083 197.615 266.224 197.041 265.802 186.083 267.083 185.229Z" fill="#041B91"/><path d="M273.062 185.229 273.062 184.375 267.938 184.375 267.938 185.229 269.219 186.083 268.797 197.041 267.938 197.615 267.938 198.469 273.062 198.469 273.062 197.615 272.203 197.041 271.781 186.083 273.062 185.229Z" fill="#041B91"/><path d="M279.042 185.229 279.042 184.375 273.917 184.375 273.917 185.229 275.198 186.083 274.776 197.041 273.917 197.615 273.917 198.469 279.042 198.469 279.042 197.615 278.182 197.041 277.76 186.083 279.042 185.229Z" fill="#041B91"/><path d="M285.021 185.229 285.021 184.375 279.896 184.375 279.896 185.229 281.177 186.083 280.756 197.041 279.896 197.615 279.896 198.469 285.021 198.469 285.021 197.615 284.161 197.041 283.74 186.083 285.021 185.229Z" fill="#041B91"/><path d="M255.552 182.667 285.448 182.667 285.448 180.958 286.368 180.958 286.368 179.825 270.5 173.271 254.632 179.825 254.632 180.958 255.552 180.958 255.552 182.667Z" fill="#041B91"/></g></svg>