<svg width="41" height="41" xmlns="http://www.w3.org/2000/svg" xmlns:xlink="http://www.w3.org/1999/xlink" overflow="hidden"><defs><clipPath id="clip0"><rect x="569" y="312" width="41" height="41"/></clipPath></defs><g clip-path="url(#clip0)" transform="translate(-569 -312)"><path d="M602.526 319.474 602.099 315.63 597.401 320.328 597.657 322.549 590.824 329.382C590.226 329.083 589.543 328.87 588.817 328.87 586.468 328.87 584.546 330.792 584.546 333.141 584.546 335.49 586.468 337.411 588.817 337.411 591.166 337.411 593.088 335.49 593.088 333.141 593.088 332.415 592.917 331.774 592.618 331.176L599.451 324.343 601.672 324.599 606.37 319.901 602.526 319.474Z" fill="#002060"/><path d="M602.868 325.795 602.312 326.393 601.501 326.307 600.604 326.179C601.8 328.229 602.526 330.578 602.526 333.141 602.526 340.657 596.376 346.807 588.859 346.807 581.343 346.807 575.193 340.657 575.193 333.141 575.193 325.624 581.343 319.474 588.859 319.474 591.379 319.474 593.771 320.157 595.821 321.396L595.735 320.542 595.607 319.688 596.205 319.09 596.504 318.791C594.198 317.595 591.635 316.911 588.859 316.911 579.891 316.911 572.63 324.172 572.63 333.141 572.63 342.109 579.891 349.37 588.859 349.37 597.828 349.37 605.089 342.109 605.089 333.141 605.089 330.365 604.405 327.802 603.167 325.539L602.868 325.795Z" fill="#002060"/><path d="M595.992 330.236C596.376 331.133 596.547 332.116 596.547 333.141 596.547 337.369 593.088 340.828 588.859 340.828 584.631 340.828 581.172 337.369 581.172 333.141 581.172 328.913 584.631 325.453 588.859 325.453 589.884 325.453 590.867 325.667 591.764 326.008L593.685 324.086C592.233 323.318 590.61 322.891 588.859 322.891 583.222 322.891 578.609 327.503 578.609 333.141 578.609 338.778 583.222 343.391 588.859 343.391 594.497 343.391 599.109 338.778 599.109 333.141 599.109 331.39 598.682 329.767 597.914 328.315L595.992 330.236Z" fill="#002060"/></g></svg>