<svg width="41" height="41" xmlns="http://www.w3.org/2000/svg" xmlns:xlink="http://www.w3.org/1999/xlink" overflow="hidden"><defs><clipPath id="clip0"><rect x="548" y="287" width="41" height="41"/></clipPath></defs><g clip-path="url(#clip0)" transform="translate(-548 -287)"><path d="M579.946 296.31C578.921 296.31 578.067 295.456 578.067 294.431 578.067 293.406 578.921 292.552 579.946 292.552 580.971 292.552 581.825 293.406 581.825 294.431L581.825 294.431C581.825 295.456 580.971 296.31 579.946 296.31 579.946 296.31 579.946 296.31 579.946 296.31ZM579.946 289.99C578.494 289.99 577.127 290.716 576.316 291.911 575.504 293.107 575.333 294.645 575.846 296.011L577.853 300.41 579.561 304.041C579.69 304.254 579.946 304.34 580.117 304.211 580.202 304.169 580.245 304.126 580.287 304.041L581.996 300.41 584.003 296.011C584.516 294.645 584.345 293.107 583.533 291.911 582.765 290.716 581.398 289.99 579.946 289.99Z" fill="#041B91"/><path d="M558.165 313.394C556.883 313.394 555.816 312.326 555.816 311.045 555.816 309.764 556.883 308.696 558.165 308.696 559.446 308.696 560.514 309.764 560.514 311.045 560.514 311.045 560.514 311.045 560.514 311.045 560.514 312.326 559.446 313.394 558.165 313.394 558.165 313.394 558.165 313.394 558.165 313.394L558.165 313.394ZM558.165 305.578C556.371 305.578 554.662 306.475 553.638 307.97 552.612 309.465 552.399 311.386 553.082 313.052L555.559 318.519 557.695 323.003C557.823 323.259 558.165 323.345 558.421 323.217 558.506 323.174 558.592 323.089 558.634 323.003L560.77 318.519 563.247 313.052C563.888 311.386 563.674 309.465 562.692 307.97 561.667 306.475 559.958 305.578 558.165 305.578L558.165 305.578Z" fill="#041B91"/><path d="M564.144 323.302 563.033 323.302C562.521 323.302 562.051 323.302 561.581 323.302L561.581 320.74C562.008 320.74 562.521 320.74 563.033 320.74L564.144 320.74 564.144 323.302Z" fill="#041B91"/><path d="M565.895 323.302 565.895 320.74C566.834 320.74 567.646 320.74 568.415 320.697L568.5 323.259C567.689 323.302 566.834 323.302 565.895 323.302Z" fill="#041B91"/><path d="M570.208 323.174 570.08 320.611C570.977 320.569 571.831 320.526 572.557 320.441L572.814 323.003C572.045 323.089 571.148 323.131 570.208 323.174L570.208 323.174Z" fill="#041B91"/><path d="M574.607 322.79 574.223 320.27C575.034 320.142 575.803 320.014 576.572 319.8L577.255 322.277C576.358 322.491 575.504 322.661 574.607 322.79Z" fill="#041B91"/><path d="M579.049 321.636 578.024 319.288C578.579 319.117 579.049 318.732 579.391 318.263L581.654 319.501C581.014 320.483 580.117 321.209 579.049 321.636L579.049 321.636Z" fill="#041B91"/><path d="M579.433 317.408C579.348 316.853 579.092 316.298 578.707 315.914L580.501 314.12C581.312 314.931 581.825 315.956 581.953 317.109L579.433 317.408Z" fill="#041B91"/><path d="M577.64 315.145C576.956 314.803 576.23 314.504 575.504 314.291L576.23 311.856C577.127 312.112 578.024 312.454 578.835 312.881L577.64 315.145Z" fill="#041B91"/><path d="M573.881 313.864 573.198 313.693C572.6 313.522 571.959 313.394 571.361 313.223L572.045 310.746C572.6 310.917 573.198 311.045 573.796 311.216L574.479 311.386 573.881 313.864Z" fill="#041B91"/><path d="M569.61 312.625C568.585 312.241 567.646 311.6 566.963 310.746L569.055 309.294C569.44 309.764 569.995 310.105 570.55 310.276L569.61 312.625Z" fill="#041B91"/><path d="M568.884 308.44 566.322 308.269C566.407 307.03 567.091 305.92 568.073 305.194L569.653 307.201C568.884 307.842 568.884 308.311 568.884 308.44L568.884 308.44Z" fill="#041B91"/><path d="M570.849 306.56 569.824 304.211C570.678 303.827 571.575 303.528 572.472 303.315L573.07 305.792C572.301 306.005 571.575 306.261 570.849 306.56L570.849 306.56Z" fill="#041B91"/><path d="M574.65 305.493 574.223 302.973C575.333 302.802 576.273 302.674 576.871 302.631L577.084 305.194C576.657 305.236 575.718 305.322 574.65 305.493L574.65 305.493Z" fill="#041B91"/></g></svg>