<svg width="24" height="24" xmlns="http://www.w3.org/2000/svg" xmlns:xlink="http://www.w3.org/1999/xlink" overflow="hidden"><defs><clipPath id="clip0"><rect x="214" y="315" width="24" height="24"/></clipPath></defs><g clip-path="url(#clip0)" transform="translate(-214 -315)"><path d="M232.7 320.45C232.1 320.45 231.6 319.95 231.6 319.35 231.6 318.75 232.1 318.25 232.7 318.25 233.3 318.25 233.8 318.75 233.8 319.35L233.8 319.35C233.8 319.95 233.3 320.45 232.7 320.45 232.7 320.45 232.7 320.45 232.7 320.45ZM232.7 316.75C231.85 316.75 231.05 317.175 230.575 317.875 230.1 318.575 230 319.475 230.3 320.275L231.475 322.85 232.475 324.975C232.55 325.1 232.7 325.15 232.8 325.075 232.85 325.05 232.875 325.025 232.9 324.975L233.9 322.85 235.075 320.275C235.375 319.475 235.275 318.575 234.8 317.875 234.35 317.175 233.55 316.75 232.7 316.75Z" fill="#003153"/><path d="M219.95 330.45C219.2 330.45 218.575 329.825 218.575 329.075 218.575 328.325 219.2 327.7 219.95 327.7 220.7 327.7 221.325 328.325 221.325 329.075 221.325 329.075 221.325 329.075 221.325 329.075 221.325 329.825 220.7 330.45 219.95 330.45 219.95 330.45 219.95 330.45 219.95 330.45L219.95 330.45ZM219.95 325.875C218.9 325.875 217.9 326.4 217.3 327.275 216.7 328.15 216.575 329.275 216.975 330.25L218.425 333.45 219.675 336.075C219.75 336.225 219.95 336.275 220.1 336.2 220.15 336.175 220.2 336.125 220.225 336.075L221.475 333.45 222.925 330.25C223.3 329.275 223.175 328.15 222.6 327.275 222 326.4 221 325.875 219.95 325.875L219.95 325.875Z" fill="#003153"/><path d="M223.45 336.25 222.8 336.25C222.5 336.25 222.225 336.25 221.95 336.25L221.95 334.75C222.2 334.75 222.5 334.75 222.8 334.75L223.45 334.75 223.45 336.25Z" fill="#003153"/><path d="M224.475 336.25 224.475 334.75C225.025 334.75 225.5 334.75 225.95 334.725L226 336.225C225.525 336.25 225.025 336.25 224.475 336.25Z" fill="#003153"/><path d="M227 336.175 226.925 334.675C227.45 334.65 227.95 334.625 228.375 334.575L228.525 336.075C228.075 336.125 227.55 336.15 227 336.175L227 336.175Z" fill="#003153"/><path d="M229.575 335.95 229.35 334.475C229.825 334.4 230.275 334.325 230.725 334.2L231.125 335.65C230.6 335.775 230.1 335.875 229.575 335.95Z" fill="#003153"/><path d="M232.175 335.275 231.575 333.9C231.9 333.8 232.175 333.575 232.375 333.3L233.7 334.025C233.325 334.6 232.8 335.025 232.175 335.275L232.175 335.275Z" fill="#003153"/><path d="M232.4 332.8C232.35 332.475 232.2 332.15 231.975 331.925L233.025 330.875C233.5 331.35 233.8 331.95 233.875 332.625L232.4 332.8Z" fill="#003153"/><path d="M231.35 331.475C230.95 331.275 230.525 331.1 230.1 330.975L230.525 329.55C231.05 329.7 231.575 329.9 232.05 330.15L231.35 331.475Z" fill="#003153"/><path d="M229.15 330.725 228.75 330.625C228.4 330.525 228.025 330.45 227.675 330.35L228.075 328.9C228.4 329 228.75 329.075 229.1 329.175L229.5 329.275 229.15 330.725Z" fill="#003153"/><path d="M226.65 330C226.05 329.775 225.5 329.4 225.1 328.9L226.325 328.05C226.55 328.325 226.875 328.525 227.2 328.625L226.65 330Z" fill="#003153"/><path d="M226.225 327.55 224.725 327.45C224.775 326.725 225.175 326.075 225.75 325.65L226.675 326.825C226.225 327.2 226.225 327.475 226.225 327.55L226.225 327.55Z" fill="#003153"/><path d="M227.375 326.45 226.775 325.075C227.275 324.85 227.8 324.675 228.325 324.55L228.675 326C228.225 326.125 227.8 326.275 227.375 326.45L227.375 326.45Z" fill="#003153"/><path d="M229.6 325.825 229.35 324.35C230 324.25 230.55 324.175 230.9 324.15L231.025 325.65C230.775 325.675 230.225 325.725 229.6 325.825L229.6 325.825Z" fill="#003153"/></g></svg>