<svg width="24" height="24" xmlns="http://www.w3.org/2000/svg" xmlns:xlink="http://www.w3.org/1999/xlink" overflow="hidden"><defs><clipPath id="clip0"><rect x="290" y="72" width="24" height="24"/></clipPath></defs><g clip-path="url(#clip0)" transform="translate(-290 -72)"><path d="M303.188 81.7625 300.985 81.7625C300.778 81.7625 300.61 81.9304 300.61 82.1375 300.61 82.3446 300.778 82.5125 300.985 82.5125L303.188 82.5125C303.395 82.5125 303.562 82.3446 303.562 82.1375 303.562 81.9304 303.395 81.7625 303.188 81.7625Z" fill="#003153"/><path d="M302.085 83.75C302.508 83.7496 302.857 83.4216 302.885 83L301.288 83C301.314 83.4212 301.663 83.7495 302.085 83.75Z" fill="#003153"/><path d="M302.085 74.61 302.085 74.61C300.339 74.6219 298.921 76.0242 298.89 77.77L298.89 77.88C298.898 78.2634 298.974 78.6424 299.112 79 299.242 79.334 299.43 79.6422 299.668 79.91 299.964 80.2844 300.216 80.6922 300.418 81.125 300.459 81.2083 300.544 81.2613 300.638 81.2625L303.538 81.2625C303.631 81.2613 303.716 81.2083 303.758 81.125 303.96 80.6923 304.211 80.2845 304.508 79.91 304.744 79.6415 304.931 79.3335 305.06 79 305.195 78.6457 305.27 78.2714 305.283 77.8925L305.283 77.7825C305.257 76.0314 303.836 74.622 302.085 74.61ZM304.545 77.86C304.535 78.1552 304.475 78.4466 304.37 78.7225 304.271 78.9702 304.13 79.1987 303.953 79.3975 303.672 79.7379 303.431 80.1095 303.235 80.505L300.938 80.505C300.741 80.1095 300.499 79.7379 300.217 79.3975 300.041 79.1986 299.9 78.9701 299.802 78.7225 299.697 78.4466 299.638 78.1552 299.628 77.86L299.628 77.77C299.651 76.4269 300.742 75.3479 302.085 75.34L302.085 75.34C303.429 75.3479 304.521 76.4265 304.545 77.77Z" fill="#003153"/><path d="M300.88 78.5825 302.203 76 302.203 77.495 303.575 77.2225 302.203 79.75 302.203 78.2825 300.88 78.5825Z" fill="#003153"/><path d="M309.21 85.3825C309.21 86.4567 308.339 87.3275 307.265 87.3275 306.191 87.3275 305.32 86.4567 305.32 85.3825 305.32 84.3083 306.191 83.4375 307.265 83.4375 308.339 83.4375 309.21 84.3083 309.21 85.3825Z" fill="#003153"/><path d="M298.835 85.3825C298.835 86.4567 297.964 87.3275 296.89 87.3275 295.816 87.3275 294.945 86.4567 294.945 85.3825 294.945 84.3083 295.816 83.4375 296.89 83.4375 297.964 83.4375 298.835 84.3083 298.835 85.3825Z" fill="#003153"/><path d="M310.765 89.0125C310.205 88.5761 309.556 88.2665 308.865 88.105 308.345 87.9532 307.807 87.8692 307.265 87.855 306.722 87.8538 306.182 87.9382 305.665 88.105 305.147 88.243 304.652 88.4552 304.195 88.735 304.165 88.77 304.138 88.805 304.105 88.8375 304.832 89.0332 305.512 89.3733 306.105 89.8375 306.573 90.1789 306.846 90.726 306.837 91.305L306.837 91.75 311.155 91.75 311.155 89.7925C311.163 89.4839 311.016 89.1917 310.765 89.0125Z" fill="#003153"/><path d="M297.323 91.305C297.323 90.7424 297.581 90.2111 298.022 89.8625L298.052 89.8375 298.085 89.815C298.685 89.3885 299.348 89.0594 300.05 88.84 300 88.7875 299.955 88.7325 299.908 88.6775 299.468 88.4203 298.994 88.2275 298.5 88.105 297.98 87.953 297.442 87.8689 296.9 87.855 296.357 87.854 295.817 87.9383 295.3 88.105 294.618 88.2931 293.975 88.6004 293.4 89.0125 293.154 89.1971 293.006 89.4848 293 89.7925L293 91.75 297.323 91.75Z" fill="#003153"/><path d="M298.188 93.25 298.188 91.305C298.189 90.9991 298.333 90.7113 298.578 90.5275 299.151 90.1136 299.795 89.8062 300.478 89.62 300.994 89.4522 301.534 89.3678 302.078 89.37 302.62 89.3827 303.157 89.4668 303.677 89.62 304.37 89.7799 305.02 90.0897 305.58 90.5275 305.83 90.7061 305.976 90.9975 305.967 91.305L305.967 93.25Z" fill="#003153"/><path d="M304.022 86.895C304.022 87.9692 303.152 88.84 302.078 88.84 301.003 88.84 300.133 87.9692 300.133 86.895 300.133 85.8208 301.003 84.95 302.078 84.95 303.152 84.95 304.022 85.8208 304.022 86.895Z" fill="#003153"/></g></svg>