<svg width="41" height="41" xmlns="http://www.w3.org/2000/svg" xmlns:xlink="http://www.w3.org/1999/xlink" overflow="hidden"><defs><clipPath id="clip0"><rect x="548" y="88" width="41" height="41"/></clipPath></defs><g clip-path="url(#clip0)" transform="translate(-548 -88)"><path d="M577.042 100.898C576.017 100.898 575.162 100.044 575.205 98.976 575.205 97.951 576.059 97.0969 577.084 97.0969 578.109 97.0969 578.964 97.951 578.964 98.976 578.964 99.4885 578.75 99.9583 578.408 100.3 578.024 100.684 577.554 100.898 577.042 100.898ZM575.205 94.9615C574.266 95.3031 573.54 96.0292 573.07 96.8833 572.472 98.0365 572.386 99.3604 572.856 100.556L574.906 104.998 576.273 107.817C576.401 108.116 576.7 108.286 577.042 108.286 577.383 108.286 577.682 108.116 577.81 107.817L579.177 104.998 581.227 100.599C581.441 100.086 581.526 99.5312 581.526 98.976 581.526 95.9865 578.451 93.7229 575.205 94.9615Z" fill="#041B91"/><path d="M567.646 119.092 560.812 115.675 560.812 101.752 567.646 105.169 567.646 119.092ZM559.104 115.675 553.979 118.238 553.979 104.315 559.104 101.752 559.104 115.675ZM582.765 101.325 582.765 101.325 581.697 103.631 583.021 104.315 583.021 118.238 577.896 115.675 577.896 109.995 576.188 109.995 576.188 115.675 569.354 119.092 569.354 105.169 572.386 103.631 571.319 101.325 568.5 102.734 559.958 98.4635 551.417 102.734 551.417 122.38 559.958 118.109 568.5 122.38 577.042 118.109 585.583 122.38 585.583 102.734 582.765 101.325Z" fill="#041B91"/></g></svg>