<svg width="24" height="24" xmlns="http://www.w3.org/2000/svg" xmlns:xlink="http://www.w3.org/1999/xlink" overflow="hidden"><defs><clipPath id="clip0"><rect x="250" y="315" width="24" height="24"/></clipPath></defs><g clip-path="url(#clip0)" transform="translate(-250 -315)"><path d="M267 322.55C266.4 322.55 265.9 322.05 265.925 321.425 265.925 320.825 266.425 320.325 267.025 320.325 267.625 320.325 268.125 320.825 268.125 321.425 268.125 321.725 268 322 267.8 322.2 267.575 322.425 267.3 322.55 267 322.55ZM265.925 319.075C265.375 319.275 264.95 319.7 264.675 320.2 264.325 320.875 264.275 321.65 264.55 322.35L265.75 324.95 266.55 326.6C266.625 326.775 266.8 326.875 267 326.875 267.2 326.875 267.375 326.775 267.45 326.6L268.25 324.95 269.45 322.375C269.575 322.075 269.625 321.75 269.625 321.425 269.625 319.675 267.825 318.35 265.925 319.075Z" fill="#003153"/><path d="M261.5 333.2 257.5 331.2 257.5 323.05 261.5 325.05 261.5 333.2ZM256.5 331.2 253.5 332.7 253.5 324.55 256.5 323.05 256.5 331.2ZM270.35 322.8 270.35 322.8 269.725 324.15 270.5 324.55 270.5 332.7 267.5 331.2 267.5 327.875 266.5 327.875 266.5 331.2 262.5 333.2 262.5 325.05 264.275 324.15 263.65 322.8 262 323.625 257 321.125 252 323.625 252 335.125 257 332.625 262 335.125 267 332.625 272 335.125 272 323.625 270.35 322.8Z" fill="#003153"/></g></svg>