<svg width="24" height="24" xmlns="http://www.w3.org/2000/svg" xmlns:xlink="http://www.w3.org/1999/xlink" overflow="hidden"><defs><clipPath id="clip0"><rect x="310" y="451" width="24" height="24"/></clipPath></defs><g clip-path="url(#clip0)" transform="translate(-310 -451)"><path d="M332.65 460.075 331.35 459.6 331.35 456.875 332.65 456.325 323.85 453.075 313.15 456.825C312.125 457.325 312.1 458.7 312.1 459.825 312.1 460.2 312.15 460.575 312.225 460.925 311.375 461.475 311.35 462.75 311.35 463.825 311.35 464.7 311.55 465.5 312.1 466 311.975 466.425 312.05 466.95 312.05 467.575 312.05 468.7 312.35 469.725 313.35 470.075L320.3 472.95 332.6 467.85 331.3 467.375 331.3 464.625 332.6 464.075 330.6 463.325 330.6 460.925 332.65 460.075ZM313.45 458.575 320.4 461.3 330.375 457.275 330.375 459.425 320.4 463.575 313.45 460.825 313.45 458.575ZM330.325 467.2 320.35 471.325 313.375 468.575 313.375 466.625 319.6 469.175 330.35 464.925 330.325 467.2ZM329.625 463.45 319.65 467.575 312.7 464.825 312.7 462.575 319.85 465.425 329.65 461.325 329.65 463.45Z" fill="#003153"/></g></svg>