<svg width="42" height="42" xmlns="http://www.w3.org/2000/svg" xmlns:xlink="http://www.w3.org/1999/xlink" overflow="hidden"><defs><clipPath id="clip0"><rect x="649" y="120" width="42" height="42"/></clipPath></defs><g clip-path="url(#clip0)" transform="translate(-649 -120)"><path d="M661.688 131.375C662.431 131.375 663 130.806 663 130.062L663 127.438C663 126.694 662.431 126.125 661.688 126.125 660.944 126.125 660.375 126.694 660.375 127.438L660.375 130.062C660.375 130.806 660.944 131.375 661.688 131.375Z" fill="#041B91"/><path d="M657.75 139.25 682.25 139.25 682.25 153.25 657.75 153.25 657.75 139.25ZM655.125 155.875 684.875 155.875 684.875 136.625 655.125 136.625 655.125 155.875Z" fill="#041B91"/><path d="M678.312 131.375C679.056 131.375 679.625 130.806 679.625 130.062L679.625 127.438C679.625 126.694 679.056 126.125 678.312 126.125 677.569 126.125 677 126.694 677 127.438L677 130.062C677 130.806 677.569 131.375 678.312 131.375Z" fill="#041B91"/><path d="M681.375 128.75 681.375 130.062C681.375 131.769 680.019 133.125 678.312 133.125 676.606 133.125 675.25 131.769 675.25 130.062L675.25 128.75 664.75 128.75 664.75 130.062C664.75 131.769 663.394 133.125 661.688 133.125 659.981 133.125 658.625 131.769 658.625 130.062L658.625 128.75 655.125 128.75 655.125 134.875 684.875 134.875 684.875 128.75 681.375 128.75Z" fill="#041B91"/></g></svg>