<svg width="24" height="24" xmlns="http://www.w3.org/2000/svg" xmlns:xlink="http://www.w3.org/1999/xlink" overflow="hidden"><defs><clipPath id="clip0"><rect x="483" y="311" width="24" height="24"/></clipPath></defs><g clip-path="url(#clip0)" transform="translate(-483 -311)"><path d="M490.25 317.5C490.675 317.5 491 317.175 491 316.75L491 315.25C491 314.825 490.675 314.5 490.25 314.5 489.825 314.5 489.5 314.825 489.5 315.25L489.5 316.75C489.5 317.175 489.825 317.5 490.25 317.5Z" fill="#003153"/><path d="M488 328 492 328 492 330 488 330 488 328ZM488 325 492 325 492 327 488 327 488 325ZM488 322 492 322 492 324 488 324 488 322ZM497 322 497 324 493 324 493 322 497 322ZM502 322 502 324 498 324 498 322 502 322ZM502 327 498 327 498 325 502 325 502 327ZM502 330 498 330 498 328 502 328 502 330ZM493 327 493 325 497 325 497 327 493 327ZM493 330 493 328 497 328 497 330 493 330ZM486.5 331.5 503.5 331.5 503.5 320.5 486.5 320.5 486.5 331.5Z" fill="#003153"/><path d="M499.75 317.5C500.175 317.5 500.5 317.175 500.5 316.75L500.5 315.25C500.5 314.825 500.175 314.5 499.75 314.5 499.325 314.5 499 314.825 499 315.25L499 316.75C499 317.175 499.325 317.5 499.75 317.5Z" fill="#003153"/><path d="M501.5 316 501.5 316.75C501.5 317.725 500.725 318.5 499.75 318.5 498.775 318.5 498 317.725 498 316.75L498 316 492 316 492 316.75C492 317.725 491.225 318.5 490.25 318.5 489.275 318.5 488.5 317.725 488.5 316.75L488.5 316 486.5 316 486.5 319.5 503.5 319.5 503.5 316 501.5 316Z" fill="#003153"/></g></svg>