<svg width="24" height="24" xmlns="http://www.w3.org/2000/svg" xmlns:xlink="http://www.w3.org/1999/xlink" overflow="hidden"><defs><clipPath id="clip0"><rect x="387" y="301" width="24" height="24"/></clipPath></defs><g clip-path="url(#clip0)" transform="translate(-387 -301)"><path d="M400.781 315.582 400.729 315.582C400.225 317.087 399.238 317.84 397.768 317.839 396.888 317.866 396.047 317.475 395.5 316.784 394.926 316.081 394.639 315.134 394.639 313.944 394.639 312.37 395.033 311.061 395.82 310.02 396.534 309.014 397.7 308.428 398.933 308.455 399.402 308.449 399.861 308.59 400.245 308.859 400.598 309.087 400.862 309.43 400.991 309.831L401.022 309.831C401.043 309.635 401.095 309.232 401.18 308.623L402.922 308.623C402.594 312.318 402.429 314.2 402.429 314.27 402.429 315.656 402.79 316.349 403.511 316.349 404.168 316.349 404.714 315.962 405.148 315.189 405.582 314.415 405.799 313.413 405.798 312.181 405.798 310.361 405.212 308.876 404.04 307.724 402.867 306.573 401.242 305.997 399.165 305.997 397.289 305.947 395.483 306.709 394.21 308.087 392.901 309.479 392.246 311.222 392.246 313.315 392.246 315.38 392.876 317.045 394.136 318.312 395.395 319.578 397.093 320.212 399.228 320.212 400.712 320.252 402.187 319.957 403.542 319.35L403.542 320.967C402.317 321.484 400.788 321.743 398.954 321.744 396.379 321.744 394.304 320.974 392.729 319.434 391.155 317.894 390.368 315.879 390.367 313.388 390.367 310.827 391.2 308.703 392.866 307.016 394.531 305.329 396.659 304.486 399.249 304.486 401.677 304.486 403.687 305.193 405.28 306.607 406.872 308.02 407.668 309.865 407.668 312.139 407.668 313.805 407.236 315.172 406.371 316.239 405.507 317.306 404.452 317.84 403.206 317.839 401.596 317.839 400.788 317.087 400.781 315.582ZM399.112 309.945C398.342 309.945 397.721 310.323 397.249 311.078 396.75 311.934 396.504 312.914 396.54 313.904 396.505 314.536 396.672 315.163 397.018 315.694 397.304 316.114 397.784 316.361 398.293 316.35 399.062 316.35 399.671 315.953 400.12 315.158 400.568 314.363 400.792 313.312 400.792 312.003 400.792 310.631 400.232 309.945 399.112 309.945Z" fill="#003153"/></g></svg>