<svg width="42" height="41" xmlns="http://www.w3.org/2000/svg" xmlns:xlink="http://www.w3.org/1999/xlink" overflow="hidden"><defs><clipPath id="clip0"><rect x="911" y="307" width="42" height="41"/></clipPath></defs><g clip-path="url(#clip0)" transform="translate(-911 -307)"><path d="M27.7604 12.3854 25.1979 12.3854 25.1979 9.82292 27.7604 9.82292 27.7604 12.3854ZM27.7604 19.2188 25.1979 19.2188 25.1979 16.6562 27.7604 16.6562 27.7604 19.2188ZM27.7604 26.0521 25.1979 26.0521 25.1979 23.4896 27.7604 23.4896 27.7604 26.0521ZM27.7604 32.8854 25.1979 32.8854 25.1979 30.3229 27.7604 30.3229 27.7604 32.8854ZM21.7812 12.3854 19.2188 12.3854 19.2188 9.82292 21.7812 9.82292 21.7812 12.3854ZM21.7812 19.2188 19.2188 19.2188 19.2188 16.6562 21.7812 16.6562 21.7812 19.2188ZM21.7812 26.0521 19.2188 26.0521 19.2188 23.4896 21.7812 23.4896 21.7812 26.0521ZM21.7812 35.4479 19.2188 35.4479 19.2188 30.3229 21.7812 30.3229 21.7812 35.4479ZM15.8021 12.3854 13.2396 12.3854 13.2396 9.82292 15.8021 9.82292 15.8021 12.3854ZM15.8021 19.2188 13.2396 19.2188 13.2396 16.6562 15.8021 16.6562 15.8021 19.2188ZM15.8021 26.0521 13.2396 26.0521 13.2396 23.4896 15.8021 23.4896 15.8021 26.0521ZM15.8021 32.8854 13.2396 32.8854 13.2396 30.3229 15.8021 30.3229 15.8021 32.8854ZM30.75 35.4479 30.75 6.83333 29.4688 6.83333 29.4688 4.27083 28.1875 4.27083 28.1875 2.5625 12.8125 2.5625 12.8125 4.27083 11.5312 4.27083 11.5312 6.83333 10.25 6.83333 10.25 35.4479 8.54167 35.4479 8.54167 38.4375 32.4583 38.4375 32.4583 35.4479 30.75 35.4479Z" fill="#041B91" transform="matrix(1.02439 0 0 1 911 307)"/></g></svg>