<svg width="24" height="24" xmlns="http://www.w3.org/2000/svg" xmlns:xlink="http://www.w3.org/1999/xlink" overflow="hidden"><defs><clipPath id="clip0"><rect x="289" y="111" width="24" height="24"/></clipPath></defs><g clip-path="url(#clip0)" transform="translate(-289 -111)"><path d="M305.25 118.25 303.75 118.25 303.75 116.75 305.25 116.75 305.25 118.25ZM305.25 122.25 303.75 122.25 303.75 120.75 305.25 120.75 305.25 122.25ZM305.25 126.25 303.75 126.25 303.75 124.75 305.25 124.75 305.25 126.25ZM305.25 130.25 303.75 130.25 303.75 128.75 305.25 128.75 305.25 130.25ZM301.75 118.25 300.25 118.25 300.25 116.75 301.75 116.75 301.75 118.25ZM301.75 122.25 300.25 122.25 300.25 120.75 301.75 120.75 301.75 122.25ZM301.75 126.25 300.25 126.25 300.25 124.75 301.75 124.75 301.75 126.25ZM301.75 131.75 300.25 131.75 300.25 128.75 301.75 128.75 301.75 131.75ZM298.25 118.25 296.75 118.25 296.75 116.75 298.25 116.75 298.25 118.25ZM298.25 122.25 296.75 122.25 296.75 120.75 298.25 120.75 298.25 122.25ZM298.25 126.25 296.75 126.25 296.75 124.75 298.25 124.75 298.25 126.25ZM298.25 130.25 296.75 130.25 296.75 128.75 298.25 128.75 298.25 130.25ZM307 131.75 307 115 306.25 115 306.25 113.5 305.5 113.5 305.5 112.5 296.5 112.5 296.5 113.5 295.75 113.5 295.75 115 295 115 295 131.75 294 131.75 294 133.5 308 133.5 308 131.75 307 131.75Z" fill="#003153"/></g></svg>