<svg width="42" height="41" xmlns="http://www.w3.org/2000/svg" xmlns:xlink="http://www.w3.org/1999/xlink" overflow="hidden"><defs><clipPath id="clip0"><rect x="315" y="266" width="42" height="41"/></clipPath></defs><g clip-path="url(#clip0)" transform="translate(-315 -266)"><path d="M23.3888 23.6177C23.8697 24.085 23.8808 24.8537 23.4135 25.3347 23.4054 25.343 23.3971 25.3512 23.3888 25.3594L21.3038 26.0461 20.9361 25.6784 21.6228 23.5934C22.1207 23.1214 22.9041 23.1322 23.3888 23.6177ZM32.8102 11.032 20.7665 23.1026 19.2188 27.7634 23.9039 26.2178 35.9502 14.174Z" fill="#041B91" transform="matrix(1.02439 0 0 1 315 266)"/><path d="M38.5733 10.1505 36.8317 8.40884C36.4543 8.02272 35.8354 8.01563 35.4492 8.393 35.4439 8.39821 35.4386 8.40351 35.4334 8.40884L33.7161 10.1261 36.8317 13.2396 38.5485 11.5227C38.9337 11.1838 38.9712 10.5969 38.6324 10.2117 38.6136 10.1904 38.5939 10.17 38.5733 10.1505Z" fill="#041B91" transform="matrix(1.02439 0 0 1 315 266)"/><path d="M11.1042 27.7604 17.87 27.7604 18.4363 26.0521 11.1042 26.0521 11.1042 27.7604Z" fill="#041B91" transform="matrix(1.02439 0 0 1 315 266)"/><path d="M11.1042 17.5104 24.5351 17.5104 26.24 15.8021 11.1042 15.8021 11.1042 17.5104Z" fill="#041B91" transform="matrix(1.02439 0 0 1 315 266)"/><path d="M29.8958 22.0375 29.8958 35.0208 8.54167 35.0208 8.54167 8.54167 13.2396 8.54167 13.2396 11.1042 25.1979 11.1042 25.1979 8.54167 29.8958 8.54167 29.8958 12.1386 31.9031 10.1261 31.9031 10.1261 31.9762 10.0531 32.4583 9.57094 32.4583 7.6875C32.4583 6.74403 31.6935 5.97917 30.75 5.97917L23.4896 5.97917 23.4896 5.125C23.4896 4.18151 22.7247 3.41667 21.7812 3.41667L16.6562 3.41667C15.7128 3.41667 14.9479 4.18151 14.9479 5.125L14.9479 5.97917 7.6875 5.97917C6.74403 5.97917 5.97917 6.74403 5.97917 7.6875L5.97917 35.875C5.97917 36.8185 6.74403 37.5833 7.6875 37.5833L30.75 37.5833C31.6935 37.5833 32.4583 36.8185 32.4583 35.875L32.4583 19.475ZM18.3065 5.494C18.5478 5.25223 18.8772 5.11902 19.2188 5.125 19.9264 5.125 20.5 5.69862 20.5 6.40625 20.5 7.11388 19.9264 7.6875 19.2188 7.6875 18.5111 7.6875 17.9375 7.11388 17.9375 6.40625 17.9315 6.06467 18.0647 5.73534 18.3065 5.494Z" fill="#041B91" transform="matrix(1.02439 0 0 1 315 266)"/><path d="M11.1042 22.6354 19.4101 22.6354 21.115 20.9271 11.1042 20.9271 11.1042 22.6354Z" fill="#041B91" transform="matrix(1.02439 0 0 1 315 266)"/></g></svg>