<svg width="24" height="24" xmlns="http://www.w3.org/2000/svg" xmlns:xlink="http://www.w3.org/1999/xlink" overflow="hidden"><defs><clipPath id="clip0"><rect x="112" y="396" width="24" height="24"/></clipPath></defs><g clip-path="url(#clip0)" transform="translate(-112 -396)"><path d="M131.75 414.75 131.75 414.25 130.75 414.25 130.75 405.75 131.75 405.75 131.75 405.25 132.5 405.25 132.5 403.75 131.75 403.75 124 399 116.25 403.75 115.5 403.75 115.5 405.25 116.25 405.25 116.25 405.75 117.25 405.75 117.25 414.25 116.25 414.25 116.25 414.75 114.5 416 114.5 417 124 417 133.5 417 133.5 416 131.75 414.75ZM120.25 414.25 118.75 414.25 118.75 405.75 120.25 405.75 120.25 414.25ZM123.25 414.25 121.75 414.25 121.75 405.75 123.25 405.75 123.25 414.25ZM123.75 403.25C123.2 403.25 122.75 402.8 122.75 402.25 122.75 401.7 123.2 401.25 123.75 401.25 124.3 401.25 124.75 401.7 124.75 402.25 124.75 402.8 124.3 403.25 123.75 403.25ZM126.25 414.25 124.75 414.25 124.75 405.75 126.25 405.75 126.25 414.25ZM129.25 414.25 127.75 414.25 127.75 405.75 129.25 405.75 129.25 414.25Z" fill="#003153"/></g></svg>