<svg width="24" height="24" xmlns="http://www.w3.org/2000/svg" xmlns:xlink="http://www.w3.org/1999/xlink" overflow="hidden"><defs><clipPath id="clip0"><rect x="155" y="206" width="24" height="24"/></clipPath></defs><g clip-path="url(#clip0)" transform="translate(-155 -206)"><path d="M167.5 213.5 166.5 213.5C165.95 213.5 165.5 213.05 165.5 212.5L165.5 210.5C165.5 209.95 165.95 209.5 166.5 209.5L167.5 209.5C168.05 209.5 168.5 209.95 168.5 210.5L168.5 212.5C168.5 213.05 168.05 213.5 167.5 213.5Z" fill="#003153"/><path d="M175 218.5 169 218.5 169 217.5 175 217.5 175 218.5ZM175 221.5 169 221.5 169 220.5 175 220.5 175 221.5ZM175 224.5 169 224.5 169 223.5 175 223.5 175 224.5ZM167 224.5 159 224.5 159 222.5C159 222.2 159.15 221.9 159.4 221.7 159.95 221.3 160.65 220.95 161.35 220.75 161.9 220.6 162.45 220.5 163 220.5 163.6 220.5 164.15 220.6 164.65 220.75 165.35 220.95 166.05 221.25 166.6 221.7 166.85 221.9 167 222.2 167 222.5L167 224.5ZM163 216C164.1 216 165 216.9 165 218 165 219.1 164.1 220 163 220 161.9 220 161 219.1 161 218 161 216.9 161.9 216 163 216ZM176 212.5 169.5 212.5C169.5 213.6 168.6 214.5 167.5 214.5L166.5 214.5C165.4 214.5 164.5 213.6 164.5 212.5L158 212.5C157.45 212.5 157 212.95 157 213.5L157 225.5C157 226.05 157.45 226.5 158 226.5L176 226.5C176.55 226.5 177 226.05 177 225.5L177 213.5C177 212.95 176.55 212.5 176 212.5Z" fill="#003153"/></g></svg>