<svg width="24" height="24" xmlns="http://www.w3.org/2000/svg" xmlns:xlink="http://www.w3.org/1999/xlink" overflow="hidden"><defs><clipPath id="clip0"><rect x="101" y="447" width="24" height="24"/></clipPath></defs><g clip-path="url(#clip0)" transform="translate(-101 -447)"><path d="M122.95 449.1C122.6 448.75 120.35 449.15 118.475 449.65 119.15 450.05 119.85 450.6 120.525 451.275 121.225 451.975 121.775 452.675 122.175 453.375 122.675 451.45 123.325 449.45 122.95 449.1Z" fill="#003153"/><path d="M109.025 456.225 108.175 455.9C107.825 455.775 107.45 455.85 107.175 456.1L103.2 460.075C102.55 460.725 103.15 461.85 104.05 461.65L107.375 460.9C107.65 459.65 108.1 457.975 109.025 456.225Z" fill="#003153"/><path d="M115.65 462.75C113.975 463.625 112.375 464.1 111.075 464.35L110.3 467.9C110.1 468.8 111.2 469.425 111.875 468.75L115.85 464.775C116.1 464.525 116.2 464.125 116.05 463.775L115.65 462.75Z" fill="#003153"/><path d="M117.125 450.1C115.65 450.7 113.975 451.725 112.35 453.35 109.375 456.325 108.5 459.925 108.25 461.975L109.8 463.525C111.85 463.275 115.475 462.425 118.45 459.45 120.075 457.825 121.1 456.175 121.7 454.7 121.375 453.875 120.725 452.9 119.8 451.95 118.9 451.075 117.95 450.425 117.125 450.1ZM118.4 455.5C117.825 456.075 116.875 456.075 116.275 455.5 115.7 454.925 115.7 453.975 116.275 453.375 116.85 452.8 117.8 452.8 118.4 453.375 118.975 453.975 118.975 454.925 118.4 455.5Z" fill="#003153"/><path d="M108.225 463.55C107.825 463.15 107.875 462.475 107.05 463.3 106.225 464.125 105 466 105.375 466.4 105.775 466.8 107.65 465.55 108.475 464.725 109.3 463.875 108.625 463.925 108.225 463.55Z" fill="#003153"/></g></svg>