<svg width="42" height="42" xmlns="http://www.w3.org/2000/svg" xmlns:xlink="http://www.w3.org/1999/xlink" overflow="hidden"><defs><clipPath id="clip0"><rect x="202" y="530" width="42" height="42"/></clipPath></defs><g clip-path="url(#clip0)" transform="translate(-202 -530)"><path d="M241.637 545.881 239.363 545.05 239.363 540.281 241.637 539.319 226.238 533.631 207.512 540.194C205.719 541.069 205.675 543.475 205.675 545.444 205.675 546.1 205.762 546.756 205.894 547.369 204.406 548.331 204.363 550.562 204.363 552.444 204.363 553.975 204.712 555.375 205.675 556.25 205.456 556.994 205.587 557.912 205.587 559.006 205.587 560.975 206.113 562.769 207.863 563.381L220.025 568.412 241.55 559.487 239.275 558.656 239.275 553.844 241.55 552.881 238.05 551.569 238.05 547.369 241.637 545.881ZM208.038 543.256 220.2 548.025 237.656 540.981 237.656 544.744 220.2 552.006 208.038 547.194 208.038 543.256ZM237.569 558.35 220.113 565.569 207.906 560.756 207.906 557.344 218.8 561.806 237.613 554.369 237.569 558.35ZM236.344 551.787 218.887 559.006 206.725 554.194 206.725 550.256 219.238 555.244 236.387 548.069 236.387 551.787Z" fill="#041B91"/></g></svg>