<svg width="24" height="24" xmlns="http://www.w3.org/2000/svg" xmlns:xlink="http://www.w3.org/1999/xlink" overflow="hidden"><defs><clipPath id="clip0"><rect x="390" y="164" width="24" height="24"/></clipPath></defs><g clip-path="url(#clip0)" transform="translate(-390 -164)"><path d="M409.625 168.375 409.375 166.125 406.625 168.875 406.775 170.175 402.775 174.175C402.425 174 402.025 173.875 401.6 173.875 400.225 173.875 399.1 175 399.1 176.375 399.1 177.75 400.225 178.875 401.6 178.875 402.975 178.875 404.1 177.75 404.1 176.375 404.1 175.95 404 175.575 403.825 175.225L407.825 171.225 409.125 171.375 411.875 168.625 409.625 168.375Z" fill="#003153"/><path d="M409.825 172.075 409.5 172.425 409.025 172.375 408.5 172.3C409.2 173.5 409.625 174.875 409.625 176.375 409.625 180.775 406.025 184.375 401.625 184.375 397.225 184.375 393.625 180.775 393.625 176.375 393.625 171.975 397.225 168.375 401.625 168.375 403.1 168.375 404.5 168.775 405.7 169.5L405.65 169 405.575 168.5 405.925 168.15 406.1 167.975C404.75 167.275 403.25 166.875 401.625 166.875 396.375 166.875 392.125 171.125 392.125 176.375 392.125 181.625 396.375 185.875 401.625 185.875 406.875 185.875 411.125 181.625 411.125 176.375 411.125 174.75 410.725 173.25 410 171.925L409.825 172.075Z" fill="#003153"/><path d="M405.8 174.675C406.025 175.2 406.125 175.775 406.125 176.375 406.125 178.85 404.1 180.875 401.625 180.875 399.15 180.875 397.125 178.85 397.125 176.375 397.125 173.9 399.15 171.875 401.625 171.875 402.225 171.875 402.8 172 403.325 172.2L404.45 171.075C403.6 170.625 402.65 170.375 401.625 170.375 398.325 170.375 395.625 173.075 395.625 176.375 395.625 179.675 398.325 182.375 401.625 182.375 404.925 182.375 407.625 179.675 407.625 176.375 407.625 175.35 407.375 174.4 406.925 173.55L405.8 174.675Z" fill="#003153"/></g></svg>