<svg width="24" height="24" xmlns="http://www.w3.org/2000/svg" xmlns:xlink="http://www.w3.org/1999/xlink" overflow="hidden"><defs><clipPath id="clip0"><rect x="73" y="268" width="24" height="24"/></clipPath></defs><g clip-path="url(#clip0)" transform="translate(-73 -268)"><path d="M88 274.75C88 276.959 86.2091 278.75 84 278.75 81.7909 278.75 80 276.959 80 274.75 80 272.541 81.7909 270.75 84 270.75 86.2091 270.75 88 272.541 88 274.75Z" fill="#003153"/><path d="M85.5 285.75C85.5042 283.428 87.1847 281.449 89.475 281.069 88.775 280.734 88.0473 280.46 87.3 280.25 86.2304 279.923 85.1186 279.754 84 279.75 82.8827 279.769 81.7729 279.937 80.7 280.25 79.3018 280.658 77.9831 281.3 76.8 282.15 76.3067 282.536 76.013 283.124 76 283.75L76 287.75 85.9475 287.75C85.6535 287.124 85.5008 286.441 85.5 285.75Z" fill="#003153"/><path d="M90.25 282C88.1789 282 86.5 283.679 86.5 285.75 86.5 287.821 88.1789 289.5 90.25 289.5 92.3211 289.5 94 287.821 94 285.75 94 283.679 92.3211 282 90.25 282ZM92 286 90.625 286 90.625 287.375 89.875 287.375 89.875 286 88.5 286 88.5 285.25 89.875 285.25 89.875 283.875 90.625 283.875 90.625 285.25 92 285.25Z" fill="#003153"/></g></svg>