<svg width="24" height="24" xmlns="http://www.w3.org/2000/svg" xmlns:xlink="http://www.w3.org/1999/xlink" overflow="hidden"><defs><clipPath id="clip0"><rect x="436" y="441" width="24" height="24"/></clipPath></defs><g clip-path="url(#clip0)" transform="translate(-436 -441)"><path d="M445.25 451.02C445.385 450.88 445.46 450.694 445.46 450.5 445.461 450.303 445.382 450.114 445.242 449.975L442.872 447.603C442.733 447.462 442.543 447.383 442.345 447.383 442.148 447.384 441.959 447.463 441.82 447.603L441.557 447.867 444.978 451.28Z" fill="#003153"/><path d="M448.688 457.09C448.544 457.236 448.31 457.238 448.164 457.094 448.163 457.093 448.161 457.091 448.16 457.09L443.91 452.84C443.764 452.694 443.764 452.456 443.91 452.31L444.44 451.795 441.033 448.39C440.812 448.61 440.598 448.825 440.457 448.957 440.115 449.278 439.909 449.719 439.885 450.188 439.854 450.952 439.991 451.714 440.285 452.42 440.567 453.053 440.913 453.655 441.318 454.217 442.724 456.328 444.503 458.164 446.568 459.638 446.912 459.892 447.275 460.122 447.652 460.325 448.506 460.774 449.441 461.046 450.402 461.125 451.06 461.173 451.703 460.92 452.152 460.438L452.622 459.967 449.203 456.56Z" fill="#003153"/><path d="M453.408 458.128 451.038 455.75C450.745 455.461 450.275 455.461 449.983 455.75L449.733 456.02 453.142 459.445 453.408 459.195C453.697 458.903 453.697 458.432 453.408 458.14Z" fill="#003153"/><path d="M451.535 453.5 450.535 453.5C450.427 452.066 449.4 450.868 448 450.54L448 449.52C449.957 449.87 451.418 451.516 451.535 453.5Z" fill="#003153"/><path d="M453.925 453C453.925 453.168 453.925 453.335 453.902 453.5L452.902 453.5C452.92 453.334 452.928 453.167 452.927 453 452.923 450.281 450.719 448.078 448 448.075L448 447.075C451.271 447.078 453.922 449.729 453.925 453Z" fill="#003153"/><path d="M456.5 453C456.5 453.168 456.5 453.335 456.483 453.5L455.483 453.5C455.483 453.335 455.503 453.168 455.503 453 455.503 448.996 452.257 445.75 448.253 445.75 448.252 445.75 448.251 445.75 448.25 445.75 448.165 445.75 448.082 445.75 448 445.75L448 444.75 448.25 444.75C452.806 444.75 456.5 448.444 456.5 453Z" fill="#003153"/></g></svg>